<svg width="226" height="57" viewBox="0 0 226 57" fill="none" xmlns="http://www.w3.org/2000/svg">
<g clip-path="url(#clip0_53_1261)">
<path d="M31.1754 16.8906C35.2233 15.6268 37.2017 13.2998 37.2017 9.84599C37.2017 1.93909 28.5269 1.93909 21.557 1.93909H0V3.54054H0.592602C0.733914 3.70936 0.989189 4.27968 0.989189 5.11006V34.7256C0.989189 35.556 0.733914 36.1263 0.592602 36.2951H0V37.8966H20.9188C35.5834 37.8966 41.8377 34.648 41.8377 27.0286C41.8377 21.6995 38.0131 18.1362 31.1754 16.8951V16.8906ZM20.9781 3.53598C27.1776 3.53598 31.6996 3.97399 33.6142 6.1047C34.5669 7.16778 34.9042 8.65973 34.6717 10.8087C34.2934 14.4268 29.9081 16.3066 21.6482 16.3978H3.37327V3.54054H20.9735L20.9781 3.53598ZM3.37327 18.0495H23.777C30.715 18.0495 35.3829 19.3498 37.653 21.9094C39.0433 23.4789 39.5676 25.5092 39.253 28.119C38.5054 34.1918 33.4911 36.2404 19.3872 36.2404H3.37327V18.0495Z" fill="#4E4589"/>
<path d="M76.4545 34.721V21.841C76.4545 12.9531 71.9644 8.25823 63.4766 8.25823C59.1779 8.25823 55.4856 9.95093 52.7869 13.1584C51.0365 15.2389 49.6826 17.9491 48.7436 21.2569V4.27055C48.7436 3.04322 49.0946 1.89346 49.2632 1.71552L49.8057 1.2912L48.8393 0L45.27 2.47747L46.2774 3.81886L46.3413 3.77323C46.3504 3.90555 46.3595 4.0698 46.3595 4.27055V34.7256C46.3595 35.556 46.1042 36.1263 45.9629 36.2951H45.3703V37.8966H49.7328V36.2951H49.1402C48.9989 36.1263 48.7436 35.556 48.7436 34.7347C48.853 26.2164 50.4074 19.7194 53.375 15.4214C55.8457 11.8398 59.2645 9.94637 63.2578 9.94637C63.6635 9.94637 64.0783 9.96462 64.484 10.0057C72.4613 10.8726 74.0659 15.7271 74.0659 23.2782V34.7302C74.0659 35.5606 73.8106 36.1309 73.6693 36.2997H73.0767V37.9011H77.4392V36.2997H76.8466C76.7053 36.1309 76.45 35.5606 76.45 34.7302L76.4545 34.721Z" fill="#4E4589"/>
<path d="M111.715 34.7758L111.765 23.2736C111.788 18.0677 110.534 14.153 108.031 11.6391C105.83 9.42624 102.684 8.30385 98.6866 8.30385C92.5281 8.30385 87.5593 11.8718 86.0186 15.2252L85.8545 15.5857L87.3815 17.8213L87.9194 16.7811C89.0363 14.6275 92.5463 10.4391 97.8569 10.0011C98.3173 9.96462 98.7732 9.94181 99.2108 9.94181C102.21 9.94181 104.594 10.8087 106.299 12.5242C108.364 14.6002 109.399 17.8989 109.376 22.3291L109.367 24.0766C108.56 23.1732 107.402 22.1421 105.789 21.2159C103.076 19.66 99.9037 18.8662 96.3663 18.8662C87.4454 18.8662 80.9678 22.9177 80.9678 28.5023C80.9678 34.0868 87.4408 38.1886 96.3663 38.1886C99.8946 38.1886 103.063 37.3536 105.78 35.7111C107.375 34.7484 108.524 33.6762 109.331 32.7363L109.321 34.7712C109.321 35.6016 109.066 36.1719 108.925 36.3407H108.332V37.9422H112.695V36.3407H112.102C111.961 36.1719 111.706 35.6016 111.706 34.7758H111.715ZM83.7986 29.3053C83.5752 27.5168 84.0311 25.9153 85.1616 24.542C87.0214 22.2835 90.5634 20.8737 95.1355 20.568C95.5959 20.5361 96.0563 20.5224 96.5076 20.5224C103.692 20.5224 107.917 24.3914 109.363 26.7959L109.349 29.8665C107.99 32.7181 104.125 36.1172 97.5606 36.4913C97.0273 36.5233 96.4985 36.5415 95.9834 36.5415C89.1229 36.5415 84.455 33.7629 83.7986 29.3099V29.3053Z" fill="#4E4589"/>
<path d="M146.231 34.7758L146.281 23.2736C146.304 18.0677 145.05 14.153 142.548 11.6391C140.346 9.42624 137.201 8.30385 133.203 8.30385C127.04 8.30385 122.076 11.8718 120.535 15.2252L120.371 15.5857L121.898 17.8213L122.436 16.7811C123.553 14.6275 127.063 10.4391 132.373 10.0011C132.834 9.96462 133.29 9.94181 133.727 9.94181C136.727 9.94181 139.111 10.8087 140.816 12.5242C142.876 14.6002 143.915 17.8989 143.893 22.3291L143.884 24.0766C143.077 23.1732 141.919 22.1421 140.305 21.2159C137.593 19.66 134.42 18.8662 130.883 18.8662C121.962 18.8662 115.489 22.9177 115.489 28.5023C115.489 34.0868 121.962 38.1886 130.883 38.1886C134.411 38.1886 137.579 37.3536 140.296 35.7111C141.891 34.7484 143.04 33.6762 143.847 32.7363L143.838 34.7712C143.838 35.6016 143.583 36.1719 143.441 36.3407H142.849V37.9422H147.211V36.3407H146.619C146.477 36.1719 146.222 35.6016 146.222 34.7758H146.231ZM118.315 29.3053C118.087 27.5168 118.548 25.9153 119.678 24.542C121.538 22.2835 125.08 20.8737 129.652 20.568C130.112 20.5361 130.573 20.5224 131.024 20.5224C138.208 20.5224 142.434 24.3914 143.879 26.7959L143.865 29.871C142.507 32.7226 138.641 36.1217 132.077 36.4959C131.544 36.5278 131.015 36.5461 130.5 36.5461C123.639 36.5461 118.971 33.7675 118.315 29.3144V29.3053Z" fill="#4E4589"/>
<path d="M179.152 10.1517H179.485C179.476 10.2429 179.435 10.3707 179.344 10.5304L165.094 35.2457L150.862 10.5167C150.762 10.357 150.721 10.2338 150.707 10.1517H151.213V8.60042H147.052V9.44905L147.029 10.1471H147.731C147.84 10.1699 148.282 10.4756 148.725 11.2284L163.813 37.4768L163.804 37.4905L164.78 39.1148L180.857 11.2376C181.263 10.5486 181.641 10.2156 181.773 10.1517H182.43V8.60042H179.152V10.1517Z" fill="#4E4589"/>
<path d="M217.047 34.721V21.841C217.047 12.9531 212.557 8.25822 204.069 8.25822C199.771 8.25822 196.074 9.95093 193.38 13.1584C191.629 15.2389 190.275 17.9491 189.336 21.2569V12.6155C189.336 11.3881 189.687 10.2384 189.856 10.0604L190.398 9.63612L189.432 8.34491L185.863 10.8224L186.87 12.1638L186.934 12.1181C186.943 12.2505 186.952 12.4147 186.952 12.6155V34.7256C186.952 35.556 186.697 36.1263 186.556 36.2951H185.963V37.8966H190.326V36.2951H189.733C189.592 36.1263 189.336 35.556 189.336 34.7347C189.441 26.2164 191 19.7194 193.968 15.4214C196.438 11.8398 199.857 9.94637 203.851 9.94637C204.256 9.94637 204.671 9.96462 205.077 10.0057C213.054 10.8726 214.659 15.7271 214.659 23.2782V34.7302C214.659 35.5606 214.403 36.1309 214.262 36.2997H213.669V37.9011H218.032V36.2997H217.439C217.298 36.1309 217.043 35.5606 217.043 34.7302L217.047 34.721Z" fill="#4E4589"/>
<path d="M223.693 5.21956C224.787 5.21956 225.676 4.17474 225.676 2.8881C225.676 1.60146 224.769 0.556633 223.693 0.556633C222.618 0.556633 221.71 1.62427 221.71 2.8881C221.71 4.15193 222.599 5.21956 223.693 5.21956Z" fill="#4E4589"/>
<path d="M224.938 34.721V12.6109C224.938 11.3836 225.289 10.2338 225.458 10.0559L226 9.63155L225.034 8.34035L221.464 10.8178L222.472 12.1592L222.536 12.1136C222.545 12.2459 222.554 12.4101 222.554 12.6109V34.721C222.554 35.5514 222.299 36.1217 222.157 36.2906H221.565V37.892H225.927V36.2906H225.335C225.193 36.1217 224.938 35.5514 224.938 34.721Z" fill="#4E4589"/>
<path d="M1.08036 46.4833C1.28093 46.3647 1.52709 46.3054 1.81427 46.3054V46.9441H1.65017C0.957279 46.9441 0.610835 47.3183 0.610835 48.0711V50.0923H0V46.3738H0.615394V46.9761C0.724797 46.7616 0.879785 46.5974 1.08036 46.4787V46.4833Z" fill="#555554"/>
<path d="M6.57776 48.4635H3.60563C3.62842 48.8285 3.7515 49.1159 3.98398 49.3212C4.21191 49.5265 4.48998 49.6315 4.81363 49.6315C5.08258 49.6315 5.30138 49.5676 5.48372 49.4444C5.6615 49.3212 5.78914 49.1524 5.86208 48.9471H6.52761C6.42733 49.303 6.23131 49.595 5.93045 49.8185C5.62959 50.0421 5.26036 50.1562 4.81819 50.1562C4.46718 50.1562 4.14809 50.0786 3.87002 49.9189C3.59196 49.7592 3.37315 49.5357 3.2136 49.2437C3.05406 48.9516 2.97656 48.614 2.97656 48.2308C2.97656 47.8475 3.05406 47.5099 3.20904 47.2179C3.36403 46.9304 3.57828 46.7069 3.85635 46.5472C4.13441 46.3875 4.45351 46.3145 4.81819 46.3145C5.18286 46.3145 5.48372 46.3921 5.75267 46.5472C6.02162 46.7023 6.23131 46.9122 6.38174 47.1814C6.53217 47.4506 6.60055 47.7563 6.60055 48.0939C6.60055 48.2125 6.59599 48.3357 6.58231 48.468L6.57776 48.4635ZM5.80737 47.3548C5.70253 47.1859 5.56122 47.0582 5.38344 46.9669C5.20566 46.8802 5.00508 46.8346 4.79084 46.8346C4.48086 46.8346 4.21191 46.935 3.9931 47.1357C3.7743 47.3365 3.64666 47.6103 3.61475 47.9616H5.96236C5.96236 47.7243 5.91222 47.5236 5.80737 47.3548Z" fill="#555554"/>
<path d="M10.4707 46.5244C10.7123 46.6658 10.8901 46.8392 11.0086 47.0536V46.3738H11.6331V50.1744C11.6331 50.512 11.5602 50.8177 11.4143 51.0824C11.2685 51.347 11.0633 51.5523 10.7944 51.7029C10.5254 51.8534 10.2109 51.9264 9.85533 51.9264C9.36758 51.9264 8.96187 51.8124 8.63366 51.5797C8.31001 51.347 8.114 51.0322 8.0593 50.6352H8.67013C8.73851 50.8634 8.87982 51.0413 9.08951 51.1827C9.30376 51.3196 9.55903 51.3881 9.85533 51.3881C10.1927 51.3881 10.4707 51.2831 10.685 51.0687C10.8992 50.8542 11.0086 50.5577 11.0086 50.1744V49.3942C10.8855 49.6132 10.7078 49.7912 10.4662 49.9372C10.2246 50.0832 9.9465 50.1562 9.62741 50.1562C9.30832 50.1562 8.99834 50.074 8.72939 49.9098C8.46044 49.7455 8.25075 49.5174 8.09576 49.2254C7.94078 48.9334 7.86328 48.5958 7.86328 48.2216C7.86328 47.8475 7.94078 47.5099 8.09576 47.2179C8.25075 46.9304 8.46044 46.7069 8.72939 46.5472C8.99834 46.3875 9.2992 46.3099 9.62741 46.3099C9.95562 46.3099 10.2291 46.3784 10.4707 46.5198V46.5244ZM10.84 47.4916C10.726 47.2818 10.5756 47.1221 10.3841 47.0126C10.1927 46.9031 9.97841 46.8483 9.75049 46.8483C9.52257 46.8483 9.30832 46.9031 9.12142 47.0126C8.92996 47.1221 8.77953 47.2818 8.66557 47.4871C8.55161 47.6969 8.49691 47.9388 8.49691 48.2216C8.49691 48.5045 8.55161 48.7555 8.66557 48.9653C8.77953 49.1752 8.92996 49.3349 9.12142 49.449C9.31288 49.5585 9.52257 49.6132 9.75049 49.6132C9.97841 49.6132 10.1927 49.5585 10.3841 49.449C10.5756 49.3395 10.7306 49.1798 10.84 48.9653C10.9539 48.7555 11.0086 48.5091 11.0086 48.2308C11.0086 47.9524 10.9539 47.7061 10.84 47.4962V47.4916Z" fill="#555554"/>
<path d="M13.3563 47.2179C13.5113 46.9304 13.721 46.7069 13.99 46.5472C14.2589 46.3875 14.5598 46.3099 14.888 46.3099C15.2162 46.3099 15.4943 46.3784 15.7359 46.5198C15.9775 46.6612 16.1552 46.8346 16.2738 47.0491V46.3692H16.8983V50.0877H16.2738V49.3942C16.1507 49.6132 15.9683 49.7912 15.7267 49.9326C15.4851 50.074 15.2025 50.147 14.8834 50.147C14.5643 50.147 14.2544 50.0649 13.99 49.9007C13.721 49.7364 13.5113 49.5083 13.3609 49.2163C13.2059 48.9243 13.1284 48.5866 13.1284 48.2125C13.1284 47.8384 13.2059 47.5008 13.3609 47.2088L13.3563 47.2179ZM16.1005 47.4916C15.9866 47.2818 15.8362 47.1221 15.6447 47.0126C15.4532 46.9031 15.239 46.8483 15.0111 46.8483C14.7831 46.8483 14.5689 46.9031 14.382 47.0126C14.1905 47.1221 14.0401 47.2818 13.9262 47.4871C13.8122 47.6969 13.7575 47.9388 13.7575 48.2216C13.7575 48.5045 13.8122 48.7555 13.9262 48.9653C14.0401 49.1752 14.1905 49.3349 14.382 49.449C14.5735 49.5585 14.7831 49.6132 15.0111 49.6132C15.239 49.6132 15.4532 49.5585 15.6447 49.449C15.8362 49.3395 15.9911 49.1798 16.1005 48.9653C16.2145 48.7555 16.2692 48.5091 16.2692 48.2308C16.2692 47.9524 16.2145 47.7061 16.1005 47.4962V47.4916Z" fill="#555554"/>
<path d="M18.6397 45.6484C18.5576 45.5662 18.5166 45.4659 18.5166 45.3518C18.5166 45.2377 18.5576 45.1328 18.6397 45.0507C18.7217 44.9685 18.822 44.9275 18.936 44.9275C19.0499 44.9275 19.1457 44.9685 19.2232 45.0507C19.3007 45.1328 19.3417 45.2332 19.3417 45.3518C19.3417 45.4704 19.3007 45.5708 19.2232 45.6484C19.1457 45.7305 19.0499 45.7715 18.936 45.7715C18.822 45.7715 18.7172 45.7305 18.6397 45.6484ZM19.2368 46.3738V50.0923H18.6214V46.3738H19.2368Z" fill="#555554"/>
<path d="M23.8727 46.716C24.1507 46.9897 24.292 47.3867 24.292 47.9023V50.0969H23.6812V47.9935C23.6812 47.6239 23.59 47.3365 23.4031 47.1403C23.2162 46.9441 22.9655 46.8437 22.6419 46.8437C22.3182 46.8437 22.0584 46.9441 21.8669 47.1494C21.6755 47.3548 21.5797 47.6513 21.5797 48.0391V50.0969H20.9644V46.3784H21.5797V46.9076C21.7028 46.716 21.8669 46.57 22.0766 46.4651C22.2863 46.3601 22.5188 46.3099 22.7741 46.3099C23.2254 46.3099 23.59 46.4468 23.8727 46.7206V46.716Z" fill="#555554"/>
<path d="M29.2242 46.8802V49.0748C29.2242 49.2573 29.2607 49.3851 29.3382 49.4581C29.4157 49.5311 29.5479 49.5722 29.7394 49.5722H30.1952V50.0968H29.6391C29.2972 50.0968 29.0373 50.0193 28.8641 49.8596C28.6909 49.6999 28.6043 49.4398 28.6043 49.0794V46.8848H28.1211V46.3738H28.6043V45.4385H29.2197V46.3738H30.1906V46.8848H29.2197L29.2242 46.8802Z" fill="#555554"/>
<path d="M34.225 46.4833C34.4529 46.6019 34.6307 46.7844 34.7583 47.0217C34.8859 47.2635 34.9498 47.5555 34.9498 47.8977V50.0923H34.3389V47.989C34.3389 47.6194 34.2478 47.3319 34.0609 47.1358C33.874 46.9396 33.6232 46.8392 33.2996 46.8392C32.9759 46.8392 32.7161 46.9396 32.5246 47.1449C32.3332 47.3502 32.2375 47.6468 32.2375 48.0346V50.0923H31.6221V45.0689H32.2375V46.9031C32.3605 46.7114 32.5292 46.5654 32.7435 46.4605C32.9577 46.3556 33.1993 46.3054 33.4637 46.3054C33.7463 46.3054 33.997 46.3647 34.225 46.4833Z" fill="#555554"/>
<path d="M40.0099 48.4635H37.0378C37.0606 48.8285 37.1836 49.1159 37.4161 49.3212C37.644 49.5265 37.9221 49.6315 38.2458 49.6315C38.5147 49.6315 38.7335 49.5676 38.9159 49.4444C39.0936 49.3212 39.2213 49.1524 39.2942 48.9471H39.9597C39.8595 49.303 39.6634 49.595 39.3626 49.8185C39.0617 50.0421 38.6925 50.1562 38.2503 50.1562C37.8993 50.1562 37.5802 50.0786 37.3022 49.9189C37.0241 49.7592 36.8053 49.5357 36.6457 49.2437C36.4862 48.9516 36.4087 48.614 36.4087 48.2308C36.4087 47.8475 36.4862 47.5099 36.6412 47.2179C36.7962 46.9304 37.0104 46.7069 37.2885 46.5472C37.5665 46.3875 37.8856 46.3145 38.2503 46.3145C38.615 46.3145 38.9159 46.3921 39.1848 46.5472C39.4538 46.7023 39.6634 46.9122 39.8139 47.1814C39.9643 47.4506 40.0327 47.7563 40.0327 48.0939C40.0327 48.2125 40.0281 48.3357 40.0144 48.468L40.0099 48.4635ZM39.2349 47.3548C39.1301 47.1859 38.9888 47.0582 38.811 46.9669C38.6332 46.8802 38.4327 46.8346 38.2184 46.8346C37.9084 46.8346 37.6395 46.935 37.4207 47.1357C37.2019 47.3365 37.0742 47.6103 37.0423 47.9616H39.3899C39.3899 47.7243 39.3398 47.5236 39.2349 47.3548Z" fill="#555554"/>
<path d="M45.0922 46.4833C45.2928 46.3647 45.539 46.3054 45.8262 46.3054V46.9441H45.662C44.9692 46.9441 44.6227 47.3183 44.6227 48.0711V50.0923H44.0073V46.3738H44.6227V46.9761C44.7321 46.7616 44.8871 46.5974 45.0877 46.4787L45.0922 46.4833Z" fill="#555554"/>
<path d="M49.8241 46.4833C50.052 46.6019 50.2298 46.7844 50.3574 47.0217C50.4851 47.2635 50.5489 47.5555 50.5489 47.8977V50.0923H49.938V47.989C49.938 47.6194 49.8469 47.3319 49.66 47.1358C49.4731 46.9396 49.2224 46.8392 48.8987 46.8392C48.5751 46.8392 48.3152 46.9396 48.1238 47.1449C47.9323 47.3502 47.8366 47.6468 47.8366 48.0346V50.0923H47.2212V45.0689H47.8366V46.9031C47.9597 46.7114 48.1283 46.5654 48.3426 46.4605C48.5568 46.3556 48.7984 46.3054 49.0628 46.3054C49.3454 46.3054 49.5962 46.3647 49.8241 46.4833Z" fill="#555554"/>
<path d="M55.4401 46.3738L53.2019 51.8443H52.5637L53.2976 50.0512L51.7979 46.3738H52.4816L53.6486 49.3897L54.8019 46.3738H55.4401Z" fill="#555554"/>
<path d="M57.4869 46.8802V49.0748C57.4869 49.2573 57.5234 49.3851 57.6009 49.4581C57.6784 49.5311 57.8106 49.5722 58.002 49.5722H58.4579V50.0968H57.9018C57.5599 50.0968 57.3 50.0193 57.1268 49.8596C56.9536 49.6999 56.867 49.4398 56.867 49.0794V46.8848H56.3838V46.3738H56.867V45.4385H57.4824V46.3738H58.4533V46.8848H57.4824L57.4869 46.8802Z" fill="#555554"/>
<path d="M62.4877 46.4833C62.7156 46.6019 62.8934 46.7844 63.021 47.0217C63.1486 47.2635 63.2125 47.5555 63.2125 47.8977V50.0923H62.6016V47.989C62.6016 47.6194 62.5104 47.3319 62.3236 47.1358C62.1367 46.9396 61.8859 46.8392 61.5623 46.8392C61.2386 46.8392 60.9788 46.9396 60.7873 47.1449C60.5959 47.3502 60.5002 47.6468 60.5002 48.0346V50.0923H59.8848V45.0689H60.5002V46.9031C60.6232 46.7114 60.7919 46.5654 61.0062 46.4605C61.2204 46.3556 61.462 46.3054 61.7264 46.3054C62.009 46.3054 62.2597 46.3647 62.4877 46.4833Z" fill="#555554"/>
<path d="M70.1457 46.4833C70.3737 46.6019 70.5514 46.7844 70.6836 47.0217C70.8158 47.2589 70.8796 47.5555 70.8796 47.8977V50.0923H70.2688V47.989C70.2688 47.6194 70.1776 47.3319 69.9953 47.1358C69.813 46.9396 69.5622 46.8392 69.2523 46.8392C68.9423 46.8392 68.6779 46.9441 68.4864 47.1494C68.295 47.3548 68.2038 47.6513 68.2038 48.0437V50.0923H67.593V47.989C67.593 47.6194 67.5018 47.3319 67.3195 47.1358C67.1371 46.9396 66.891 46.8392 66.5764 46.8392C66.2619 46.8392 66.0021 46.9441 65.8106 47.1494C65.6192 47.3548 65.528 47.6513 65.528 48.0437V50.0923H64.9126V46.3738H65.528V46.9122C65.6511 46.716 65.8152 46.57 66.0203 46.4651C66.2254 46.3601 66.4534 46.3099 66.7041 46.3099C67.0141 46.3099 67.2921 46.3784 67.5337 46.5198C67.7753 46.6612 67.9531 46.8666 68.0716 47.1358C68.1765 46.8711 68.3451 46.6704 68.5867 46.5244C68.8283 46.3784 69.0927 46.3054 69.389 46.3054C69.6853 46.3054 69.936 46.3647 70.164 46.4833H70.1457Z" fill="#555554"/>
<path d="M75.7299 49.9189C75.4473 49.7592 75.2239 49.5357 75.0644 49.2437C74.9048 48.9516 74.8228 48.614 74.8228 48.2308C74.8228 47.8475 74.9048 47.5144 75.0689 47.2224C75.233 46.9304 75.4609 46.7069 75.7436 46.5517C76.0262 46.3966 76.3453 46.3191 76.7008 46.3191C77.0564 46.3191 77.3709 46.3966 77.6581 46.5517C77.9408 46.7069 78.1687 46.9304 78.3328 47.2224C78.4969 47.5144 78.5789 47.8475 78.5789 48.2353C78.5789 48.6231 78.4923 48.9562 78.3237 49.2482C78.155 49.5402 77.9225 49.7638 77.6353 49.9235C77.3481 50.0832 77.0245 50.1607 76.6735 50.1607C76.3225 50.1607 76.008 50.0832 75.7253 49.9235L75.7299 49.9189ZM77.3026 49.4535C77.4986 49.3486 77.6536 49.1935 77.7721 48.9836C77.8906 48.7737 77.9499 48.5228 77.9499 48.2216C77.9499 47.9205 77.8906 47.6696 77.7721 47.4597C77.6536 47.2498 77.5031 47.0947 77.3117 46.9943C77.1202 46.8939 76.9151 46.8437 76.6963 46.8437C76.4775 46.8437 76.2632 46.8939 76.0763 46.9943C75.8894 47.0947 75.739 47.2498 75.625 47.4597C75.5111 47.6696 75.4564 47.9205 75.4564 48.2216C75.4564 48.5228 75.5111 48.7828 75.6205 48.9882C75.7299 49.198 75.8803 49.3532 76.0627 49.4535C76.2496 49.5539 76.4501 49.6041 76.6735 49.6041C76.8969 49.6041 77.102 49.5539 77.298 49.449L77.3026 49.4535Z" fill="#555554"/>
<path d="M81.5876 46.8803H80.8081V50.0923H80.1927V46.8803H79.7095V46.3692H80.1927V46.1046C80.1927 45.6894 80.3021 45.3837 80.5163 45.1921C80.7306 45.0005 81.077 44.9047 81.5511 44.9047V45.4202C81.2821 45.4202 81.0907 45.475 80.9767 45.5799C80.8673 45.6849 80.8126 45.8628 80.8126 46.1046V46.3692H81.5921V46.8803H81.5876Z" fill="#555554"/>
<path d="M86.985 46.8803H86.2055V50.0923H85.5901V46.8803H85.1069V46.3692H85.5901V46.1046C85.5901 45.6894 85.6995 45.3837 85.9138 45.1921C86.128 45.0005 86.4745 44.9047 86.9486 44.9047V45.4202C86.6796 45.4202 86.4882 45.475 86.3742 45.5799C86.2648 45.6849 86.2101 45.8628 86.2101 46.1046V46.3692H86.9896V46.8803H86.985Z" fill="#555554"/>
<path d="M91.753 48.4635H88.7809C88.8037 48.8285 88.9268 49.1159 89.1593 49.3212C89.3872 49.5265 89.6653 49.6315 89.9889 49.6315C90.2579 49.6315 90.4767 49.5676 90.659 49.4444C90.8368 49.3212 90.9644 49.1524 91.0374 48.9471H91.7029C91.6026 49.303 91.4066 49.595 91.1057 49.8185C90.8049 50.0421 90.4356 50.1562 89.9935 50.1562C89.6425 50.1562 89.3234 50.0786 89.0453 49.9189C88.7672 49.7592 88.5484 49.5357 88.3889 49.2437C88.2293 48.9516 88.1519 48.614 88.1519 48.2308C88.1519 47.8475 88.2293 47.5099 88.3843 47.2179C88.5393 46.9304 88.7536 46.7069 89.0316 46.5472C89.3097 46.3875 89.6288 46.3145 89.9935 46.3145C90.3582 46.3145 90.659 46.3921 90.928 46.5472C91.1969 46.7023 91.4066 46.9122 91.557 47.1814C91.7075 47.4506 91.7758 47.7563 91.7758 48.0939C91.7758 48.2125 91.7713 48.3357 91.7576 48.468L91.753 48.4635ZM90.9827 47.3548C90.8778 47.1859 90.7365 47.0582 90.5587 46.9669C90.3809 46.8802 90.1804 46.8346 89.9661 46.8346C89.6561 46.8346 89.3872 46.935 89.1684 47.1357C88.9496 47.3365 88.8219 47.6103 88.79 47.9616H91.1377C91.1377 47.7243 91.0875 47.5236 90.9827 47.3548Z" fill="#555554"/>
<path d="M98.5085 46.4833C98.7364 46.6019 98.9142 46.7844 99.0464 47.0217C99.1786 47.2589 99.2424 47.5555 99.2424 47.8977V50.0923H98.6316V47.989C98.6316 47.6194 98.5404 47.3319 98.3581 47.1358C98.1758 46.9396 97.925 46.8392 97.6151 46.8392C97.3051 46.8392 97.0407 46.9441 96.8492 47.1494C96.6578 47.3548 96.5666 47.6513 96.5666 48.0437V50.0923H95.9558V47.989C95.9558 47.6194 95.8646 47.3319 95.6823 47.1358C95.4999 46.9396 95.2538 46.8392 94.9392 46.8392C94.6247 46.8392 94.3649 46.9441 94.1734 47.1494C93.982 47.3548 93.8908 47.6513 93.8908 48.0437V50.0923H93.2754V46.3738H93.8908V46.9122C94.0139 46.716 94.178 46.57 94.3831 46.4651C94.5882 46.3601 94.8162 46.3099 95.0669 46.3099C95.3769 46.3099 95.6549 46.3784 95.8965 46.5198C96.1381 46.6612 96.3159 46.8666 96.4344 47.1358C96.5393 46.8711 96.7079 46.6704 96.9495 46.5244C97.1911 46.3784 97.4555 46.3054 97.7518 46.3054C98.0481 46.3054 98.2988 46.3647 98.5268 46.4833H98.5085Z" fill="#555554"/>
<path d="M100.952 45.6484C100.87 45.5662 100.829 45.4659 100.829 45.3518C100.829 45.2377 100.87 45.1328 100.952 45.0507C101.034 44.9685 101.135 44.9275 101.248 44.9275C101.362 44.9275 101.458 44.9685 101.536 45.0507C101.613 45.1328 101.654 45.2332 101.654 45.3518C101.654 45.4704 101.613 45.5708 101.536 45.6484C101.458 45.7305 101.362 45.7715 101.248 45.7715C101.135 45.7715 101.03 45.7305 100.952 45.6484ZM101.549 46.3738V50.0923H100.934V46.3738H101.549Z" fill="#555554"/>
<path d="M106.19 46.716C106.468 46.9897 106.609 47.3867 106.609 47.9023V50.0969H105.998V47.9935C105.998 47.6239 105.907 47.3365 105.72 47.1403C105.533 46.9441 105.282 46.8437 104.959 46.8437C104.635 46.8437 104.375 46.9441 104.184 47.1494C103.992 47.3548 103.897 47.6513 103.897 48.0391V50.0969H103.281V46.3784H103.897V46.9076C104.02 46.716 104.184 46.57 104.394 46.4651C104.603 46.3601 104.836 46.3099 105.091 46.3099C105.542 46.3099 105.907 46.4468 106.19 46.7206V46.716Z" fill="#555554"/>
<path d="M108.318 45.6484C108.236 45.5662 108.195 45.4659 108.195 45.3518C108.195 45.2377 108.236 45.1328 108.318 45.0507C108.4 44.9685 108.501 44.9275 108.615 44.9275C108.729 44.9275 108.824 44.9685 108.902 45.0507C108.979 45.1328 109.02 45.2332 109.02 45.3518C109.02 45.4704 108.979 45.5708 108.902 45.6484C108.824 45.7305 108.729 45.7715 108.615 45.7715C108.501 45.7715 108.396 45.7305 108.318 45.6484ZM108.916 46.3738V50.0923H108.3V46.3738H108.916Z" fill="#555554"/>
<path d="M113.551 46.716C113.829 46.9897 113.971 47.3867 113.971 47.9023V50.0969H113.36V47.9935C113.36 47.6239 113.269 47.3365 113.082 47.1403C112.895 46.9441 112.644 46.8437 112.321 46.8437C111.997 46.8437 111.737 46.9441 111.546 47.1494C111.354 47.3548 111.258 47.6513 111.258 48.0391V50.0969H110.643V46.3784H111.258V46.9076C111.382 46.716 111.546 46.57 111.755 46.4651C111.965 46.3601 112.198 46.3099 112.453 46.3099C112.904 46.3099 113.269 46.4468 113.551 46.7206V46.716Z" fill="#555554"/>
<path d="M119.035 48.4635H116.063C116.086 48.8285 116.209 49.1159 116.442 49.3212C116.669 49.5265 116.948 49.6315 117.271 49.6315C117.54 49.6315 117.759 49.5676 117.941 49.4444C118.119 49.3212 118.247 49.1524 118.32 48.9471H118.985C118.885 49.303 118.689 49.595 118.388 49.8185C118.087 50.0421 117.718 50.1562 117.276 50.1562C116.925 50.1562 116.606 50.0786 116.328 49.9189C116.049 49.7592 115.831 49.5357 115.671 49.2437C115.512 48.9516 115.434 48.614 115.434 48.2308C115.434 47.8475 115.512 47.5099 115.667 47.2179C115.822 46.9304 116.036 46.7069 116.314 46.5472C116.592 46.3875 116.911 46.3145 117.276 46.3145C117.64 46.3145 117.941 46.3921 118.21 46.5472C118.479 46.7023 118.689 46.9122 118.839 47.1814C118.99 47.4506 119.058 47.7563 119.058 48.0939C119.058 48.2125 119.054 48.3357 119.04 48.468L119.035 48.4635ZM118.26 47.3548C118.155 47.1859 118.014 47.0582 117.836 46.9669C117.659 46.8802 117.458 46.8346 117.244 46.8346C116.934 46.8346 116.665 46.935 116.446 47.1357C116.227 47.3365 116.1 47.6103 116.068 47.9616H118.415C118.415 47.7243 118.365 47.5236 118.26 47.3548Z" fill="#555554"/>
<path d="M125.64 46.4833C125.868 46.6019 126.042 46.7844 126.174 47.0217C126.306 47.2589 126.365 47.5555 126.365 47.8977V50.0923H125.754V47.989C125.754 47.6194 125.663 47.3319 125.476 47.1358C125.289 46.9396 125.039 46.8392 124.715 46.8392C124.391 46.8392 124.132 46.9396 123.94 47.1449C123.749 47.3502 123.653 47.6468 123.653 48.0346V50.0923H123.038V45.0689H123.653V46.9031C123.776 46.7114 123.945 46.5654 124.159 46.4605C124.373 46.3556 124.615 46.3054 124.879 46.3054C125.162 46.3054 125.413 46.3647 125.64 46.4833Z" fill="#555554"/>
<path d="M131.425 48.4635H128.453C128.476 48.8285 128.604 49.1159 128.832 49.3212C129.06 49.5265 129.338 49.6315 129.661 49.6315C129.93 49.6315 130.149 49.5676 130.331 49.4444C130.509 49.3212 130.637 49.1524 130.71 48.9471H131.375C131.275 49.303 131.079 49.595 130.778 49.8185C130.482 50.0421 130.108 50.1562 129.666 50.1562C129.315 50.1562 128.996 50.0786 128.718 49.9189C128.44 49.7592 128.221 49.5357 128.061 49.2437C127.902 48.9516 127.824 48.614 127.824 48.2308C127.824 47.8475 127.902 47.5099 128.057 47.2179C128.212 46.9259 128.426 46.7069 128.704 46.5472C128.982 46.3875 129.301 46.3145 129.666 46.3145C130.031 46.3145 130.331 46.3921 130.6 46.5472C130.869 46.7023 131.079 46.9122 131.229 47.1814C131.38 47.4506 131.448 47.7563 131.448 48.0939C131.448 48.2125 131.439 48.3357 131.425 48.468V48.4635ZM130.65 47.3548C130.546 47.1859 130.404 47.0582 130.227 46.9669C130.049 46.8802 129.848 46.8346 129.634 46.8346C129.324 46.8346 129.055 46.935 128.836 47.1357C128.617 47.3365 128.49 47.6103 128.458 47.9616H130.805C130.805 47.7243 130.755 47.5236 130.65 47.3548Z" fill="#555554"/>
<path d="M132.939 47.2179C133.094 46.9304 133.304 46.7069 133.572 46.5472C133.841 46.3875 134.142 46.3099 134.471 46.3099C134.799 46.3099 135.077 46.3784 135.318 46.5198C135.56 46.6612 135.738 46.8346 135.856 47.0491V46.3692H136.481V50.0877H135.856V49.3942C135.733 49.6132 135.551 49.7912 135.309 49.9326C135.068 50.074 134.785 50.147 134.466 50.147C134.147 50.147 133.837 50.0649 133.572 49.9007C133.308 49.7364 133.094 49.5083 132.943 49.2163C132.793 48.9243 132.711 48.5866 132.711 48.2125C132.711 47.8384 132.788 47.5008 132.943 47.2088L132.939 47.2179ZM135.683 47.4916C135.569 47.2818 135.419 47.1221 135.227 47.0126C135.036 46.9031 134.826 46.8483 134.594 46.8483C134.361 46.8483 134.151 46.9031 133.965 47.0126C133.773 47.1221 133.623 47.2818 133.509 47.4871C133.395 47.6969 133.34 47.9388 133.34 48.2216C133.34 48.5045 133.395 48.7555 133.509 48.9653C133.623 49.1752 133.773 49.3349 133.965 49.449C134.156 49.5585 134.366 49.6132 134.594 49.6132C134.822 49.6132 135.036 49.5585 135.227 49.449C135.419 49.3395 135.574 49.1798 135.683 48.9653C135.797 48.7555 135.852 48.5091 135.852 48.2308C135.852 47.9524 135.797 47.7061 135.683 47.4962V47.4916Z" fill="#555554"/>
<path d="M138.819 45.0689V50.0923H138.204V45.0689H138.819Z" fill="#555554"/>
<path d="M141.299 46.8802V49.0748C141.299 49.2573 141.335 49.3851 141.413 49.4581C141.49 49.5311 141.623 49.5722 141.814 49.5722H142.27V50.0968H141.714C141.372 50.0968 141.112 50.0193 140.939 49.8596C140.766 49.6999 140.679 49.4398 140.679 49.0794V46.8848H140.196V46.3738H140.679V45.4385H141.294V46.3738H142.265V46.8848H141.294L141.299 46.8802Z" fill="#555554"/>
<path d="M146.3 46.4833C146.528 46.6019 146.701 46.7844 146.833 47.0217C146.965 47.2589 147.024 47.5555 147.024 47.8977V50.0923H146.414V47.989C146.414 47.6194 146.322 47.3319 146.136 47.1358C145.949 46.9396 145.698 46.8392 145.374 46.8392C145.051 46.8392 144.791 46.9396 144.599 47.1449C144.408 47.3502 144.312 47.6468 144.312 48.0346V50.0923H143.697V45.0689H144.312V46.9031C144.435 46.7114 144.604 46.5654 144.818 46.4605C145.032 46.3556 145.274 46.3054 145.538 46.3054C145.821 46.3054 146.072 46.3647 146.3 46.4833Z" fill="#555554"/>
<path d="M147.024 53.172H0V53.3819H147.024V53.172Z" fill="#555554"/>
<path d="M155.74 46.7479C155.772 46.6841 155.891 46.6339 156.096 46.5974C156.301 46.5609 156.47 46.5381 156.602 46.5381L157.646 46.6202C157.992 46.6476 158.316 46.7206 158.608 46.8392C158.904 46.9578 159.205 47.1358 159.51 47.3639C159.729 47.5327 159.902 47.7836 160.035 48.1258C160.167 48.468 160.231 48.8011 160.231 49.1387C160.231 50.1881 159.711 51.0504 158.667 51.7257C158.631 51.7394 158.594 51.7759 158.558 51.8398C158.53 51.8899 158.507 51.9219 158.485 51.9356C158.384 51.9994 158.302 52.0496 158.234 52.0861C158.166 52.1226 158.07 52.1637 157.947 52.2048C157.824 52.2458 157.687 52.2869 157.536 52.3234C157.386 52.3599 157.213 52.3964 157.026 52.4329C156.994 52.442 156.948 52.4648 156.885 52.5059C156.825 52.5424 156.784 52.5652 156.766 52.5652C156.748 52.5652 156.734 52.5652 156.725 52.5515C156.67 52.5515 156.397 52.6519 155.905 52.8572L155.822 52.7705C155.672 52.8025 155.563 52.8755 155.494 52.9941C155.494 53.0671 155.444 53.1355 155.348 53.1948C155.253 53.2541 155.134 53.2861 154.997 53.2861C154.902 53.2861 154.833 53.2633 154.792 53.2176C154.751 53.172 154.674 53.1492 154.56 53.1492C154.542 53.1492 154.487 53.1583 154.396 53.1766V53.1492C154.396 53.0899 154.377 53.0215 154.346 52.9485C154.309 52.8755 154.295 52.8253 154.295 52.8025C154.295 52.7568 154.359 52.6793 154.491 52.5743C154.624 52.4694 154.687 52.3918 154.687 52.3416V52.3279C154.806 51.0413 154.865 49.7638 154.865 48.4908C154.865 46.0955 154.797 44.3845 154.66 43.3534C154.564 43.2165 154.519 43.1298 154.519 43.0888L154.532 42.9336C154.532 42.8971 154.528 42.815 154.514 42.6827C154.501 42.5504 154.496 42.4318 154.496 42.3223C154.496 42.1626 154.555 42.0759 154.669 42.0576C154.783 42.0394 154.879 42.0211 154.956 41.9983C155.034 41.9755 155.075 41.9664 155.084 41.9664C155.111 41.9664 155.152 41.9755 155.207 41.9983C155.262 42.0166 155.307 42.0303 155.344 42.0303C155.38 42.0303 155.499 42.1033 155.695 42.2447C155.74 42.4454 155.763 42.5778 155.763 42.6462C155.763 42.6964 155.763 42.7238 155.75 42.7329C155.75 42.7511 155.731 42.7922 155.709 42.8561C155.522 43.3625 155.43 44.1427 155.43 45.1921C155.43 45.7989 155.449 46.2096 155.49 46.4286C155.526 46.6476 155.599 46.7525 155.695 46.7525H155.736L155.74 46.7479ZM155.617 47.373C155.531 49.3349 155.49 50.5714 155.49 51.0915C155.49 51.5295 155.554 51.8261 155.686 51.9766C155.818 52.1272 156.041 52.2002 156.365 52.2002C156.67 52.2002 157.04 52.1318 157.477 51.9994C157.915 51.8671 158.307 51.6299 158.662 51.2922C159.013 50.9546 159.25 50.6307 159.374 50.3204C159.492 50.0102 159.551 49.6954 159.551 49.3805C159.551 48.8285 159.305 48.3494 158.813 47.9433C158.321 47.5373 157.796 47.3365 157.245 47.3365H156.999L156.511 47.3091C156.315 47.3091 156.142 47.3684 155.982 47.4871C155.914 47.3776 155.832 47.3228 155.731 47.3228C155.681 47.3228 155.645 47.3411 155.622 47.3776L155.617 47.373Z" fill="#A37AB6"/>
<path d="M166.695 46.8301C166.749 46.7844 166.813 46.7616 166.886 46.7616C166.954 46.7616 167.077 46.7844 167.26 46.8301C167.442 46.8757 167.533 46.9396 167.533 47.0263C167.533 47.1494 167.456 47.2635 167.296 47.373C167.237 47.373 167 47.7517 166.585 48.5091L165.464 50.5394C165.131 51.1326 164.944 51.6481 164.898 52.0816C164.857 52.4238 164.757 52.6564 164.593 52.7659L164.552 52.9348C164.479 52.9484 164.42 52.9941 164.374 53.0716C163.718 54.5818 163.317 55.5172 163.171 55.8776C163.025 56.2335 162.947 56.5118 162.938 56.708C162.929 56.9042 162.829 57 162.647 57H162.574C162.419 56.9452 162.218 56.9179 161.967 56.9179L161.926 56.9316C161.853 56.9316 161.817 56.8951 161.817 56.8175C161.817 56.7947 161.831 56.7764 161.858 56.7627C161.858 56.7262 162.027 56.4844 162.359 56.0419C162.318 56.0282 162.3 56.0054 162.3 55.9689C162.3 55.9095 162.405 55.7225 162.619 55.4031C163.148 54.6001 163.586 53.8245 163.932 53.0716C163.905 53.0306 163.891 52.9849 163.891 52.9348C163.864 52.9165 163.823 52.9074 163.768 52.9074H163.732C163.636 52.9074 163.572 52.7888 163.536 52.5561C163.504 52.3188 163.472 52.1819 163.449 52.1409C163.244 51.7896 163.039 51.3607 162.824 50.8542C162.61 50.3478 162.387 49.8596 162.159 49.3988C161.926 48.938 161.767 48.5912 161.667 48.3494C161.566 48.1076 161.448 47.9023 161.302 47.7289C161.156 47.5555 161.083 47.4095 161.083 47.2909V47.2179C161.083 47.2179 161.037 47.2316 161.001 47.2316C160.937 47.2316 160.905 47.2179 160.905 47.1905C160.905 47.1631 160.978 47.0582 161.124 46.8757C161.27 46.6932 161.434 46.5472 161.612 46.4422C161.749 46.497 161.853 46.5426 161.926 46.5791C161.999 46.6156 162.081 46.8346 162.177 47.2361L162.328 47.7745V47.9981C162.501 48.3266 162.724 48.7965 162.998 49.3988L163.207 49.855C163.28 50.0102 163.349 50.1516 163.412 50.2794C163.476 50.4071 163.545 50.5303 163.613 50.6444C163.681 50.7584 163.754 50.8679 163.827 50.9683C163.941 51.1234 164 51.2101 164.01 51.2284C164.042 51.2968 164.078 51.3607 164.124 51.4154C164.169 51.4702 164.215 51.5249 164.265 51.5706C164.315 51.6162 164.37 51.6618 164.429 51.7029L164.958 50.5029C165.404 49.49 165.696 48.8695 165.833 48.646C165.965 48.4224 166.065 48.2125 166.134 48.0163C166.202 47.8201 166.261 47.6057 166.312 47.373C166.362 47.1403 166.407 46.9897 166.439 46.9213C166.476 46.8529 166.535 46.8209 166.622 46.8209L166.708 46.8346L166.695 46.8301Z" fill="#A37AB6"/>
<path d="M177.466 43.764C178.195 44.0788 178.761 44.5534 179.162 45.1875C179.563 45.8217 179.763 46.5381 179.763 47.3319C179.763 47.6285 179.727 47.9342 179.649 48.2353C179.567 48.541 179.449 48.8422 179.298 49.1387C179.143 49.4353 178.952 49.7319 178.729 50.0147C178.501 50.3022 178.245 50.5714 177.963 50.8223C177.666 51.0869 177.347 51.3287 177.006 51.5477C176.65 51.7804 176.272 51.9858 175.87 52.1637L175.396 52.4785L174.799 52.6701C174.485 52.7751 174.33 52.8253 174.325 52.8253C174.293 52.8253 174.252 52.8161 174.198 52.7979C174.17 52.8435 174.125 52.8846 174.061 52.9256C173.997 52.9667 173.96 52.985 173.947 52.985H173.755C173.714 53.0716 173.637 53.1401 173.527 53.1903C173.418 53.2405 173.336 53.2633 173.281 53.2633C173.24 53.2633 173.172 53.2587 173.081 53.245C172.99 53.2313 172.917 53.2268 172.866 53.2268H172.821C172.721 53.2268 172.67 53.1218 172.67 52.9074C172.67 52.88 172.684 52.8025 172.711 52.6701C172.871 51.8626 172.948 51.0048 172.948 50.0969L172.921 48.0255L172.935 45.9814C172.935 45.4567 172.921 45.0826 172.889 44.859C172.862 44.6355 172.844 44.3298 172.844 43.9374C172.844 43.7868 172.848 43.7002 172.862 43.6728C172.935 43.6454 172.971 43.5998 172.971 43.5359H173.208L173.249 43.4218C173.5 43.5633 173.764 43.6317 174.043 43.6317C174.134 43.6317 174.211 43.6272 174.28 43.6135L174.471 43.5815C174.498 43.5815 174.562 43.5907 174.662 43.6089C174.763 43.6272 174.836 43.6363 174.868 43.6363L175.032 43.6089C175.182 43.5907 175.333 43.5815 175.488 43.5815C175.957 43.5815 176.358 43.6043 176.682 43.6545C177.006 43.7002 177.17 43.7412 177.17 43.7732C177.224 43.7914 177.261 43.8005 177.284 43.8005C177.311 43.8005 177.375 43.7914 177.475 43.7732L177.466 43.764ZM173.837 51.6116C173.819 51.7211 173.81 51.7987 173.81 51.8489C173.81 52.1865 173.897 52.3508 174.074 52.3508C174.366 52.3508 174.694 52.2869 175.064 52.1591C175.433 52.0314 175.802 51.8443 176.176 51.6025C176.376 51.4702 176.55 51.3744 176.696 51.3105C176.841 51.2466 177.115 51.0185 177.516 50.6307C177.776 50.3752 177.999 50.1105 178.191 49.8231C178.382 49.5402 178.537 49.2391 178.66 48.9243C178.843 48.4589 178.934 48.1258 178.934 47.9251C178.934 47.2361 178.856 46.6476 178.701 46.1594C178.546 45.6712 178.277 45.256 177.899 44.9184C177.521 44.5807 177.092 44.3526 176.609 44.234C176.13 44.1199 175.401 44.0606 174.425 44.0606L174.371 44.202H174.316C174.248 44.202 174.188 44.1883 174.134 44.161C173.833 44.4575 173.687 45.7487 173.687 48.0437L173.746 51.4154L173.733 51.4702C173.733 51.5341 173.769 51.5797 173.842 51.6071L173.837 51.6116Z" fill="#A37AB6"/>
<path d="M185.152 47.6787C185.152 47.7243 185.12 47.8019 185.056 47.9068C184.992 48.0118 184.951 48.1121 184.928 48.208C184.905 48.2992 184.846 48.395 184.751 48.4908H184.582C184.345 48.3494 184.172 48.281 184.058 48.281C183.976 48.281 183.843 48.3266 183.656 48.4224C183.47 48.5182 183.292 48.687 183.119 48.9288C182.945 49.1707 182.836 49.3623 182.786 49.5037C182.763 49.6588 182.69 49.8185 182.567 49.9919V50.2155C182.48 50.439 182.444 50.5987 182.458 50.6991C182.471 50.7995 182.476 50.8816 182.476 50.9318C182.476 50.9911 182.471 51.0367 182.462 51.0732C182.407 51.128 182.38 51.1827 182.38 51.2375C182.38 51.3516 182.403 51.5523 182.453 51.8352C182.503 52.1181 182.581 52.3371 182.686 52.4876V52.5469C182.686 52.7523 182.603 52.8526 182.435 52.8526L182.298 52.9895C182.184 52.9986 182.061 53.0032 181.933 53.0032C181.765 53.0032 181.619 52.9804 181.491 52.9348V52.9074C181.491 52.7842 181.528 52.6063 181.605 52.369C181.683 52.1318 181.715 51.9538 181.715 51.8306L181.756 50.2337C181.756 48.9927 181.687 47.8977 181.55 46.9533C181.537 46.8529 181.532 46.7981 181.532 46.7844C181.532 46.6111 181.614 46.4787 181.778 46.3921C181.942 46.3008 182.088 46.2552 182.211 46.2552C182.321 46.2552 182.421 46.2826 182.517 46.3373C182.526 46.3556 182.544 46.3875 182.567 46.4331C182.59 46.4787 182.603 46.5061 182.603 46.5198V46.6019C182.603 46.6704 182.562 46.8209 182.485 47.0582C182.407 47.2954 182.366 47.592 182.366 47.957L182.38 48.792V48.9152C182.38 48.9836 182.439 49.0292 182.562 49.0566C182.754 48.6368 182.982 48.3038 183.246 48.062C183.511 47.8201 183.839 47.6422 184.226 47.5373C184.614 47.4278 184.86 47.373 184.965 47.373C185.083 47.4551 185.143 47.5281 185.143 47.5966V47.6787H185.152Z" fill="#A37AB6"/>
<path d="M186.93 51.4428C187.035 51.4565 187.107 51.5249 187.144 51.6572C187.18 51.785 187.24 51.9082 187.317 52.0177C187.395 52.1272 187.431 52.2139 187.431 52.2732C187.431 52.4466 187.381 52.6108 187.276 52.7523H187.249C187.221 52.7523 187.199 52.734 187.18 52.6975C187.016 52.7523 186.889 52.8481 186.793 52.9895C186.702 52.9211 186.62 52.8754 186.542 52.8526C186.506 52.7203 186.488 52.5652 186.488 52.3781C186.488 52.3097 186.46 52.2413 186.41 52.1637C186.36 52.0861 186.333 52.0314 186.333 51.9903V51.9629C186.333 51.9629 186.374 51.9036 186.415 51.8352C186.456 51.7668 186.478 51.7303 186.488 51.7257L186.93 51.4337V51.4428Z" fill="#A37AB6"/>
<path d="M198.18 43.6956C197.122 45.3655 196.028 47.4643 194.902 49.9874L193.886 52.2549V52.3508C193.886 52.515 193.831 52.6793 193.722 52.8481C193.612 53.0169 193.485 53.1081 193.348 53.1173C193.261 53.1994 193.07 53.2405 192.765 53.2405C192.632 53.2405 192.555 53.1811 192.523 53.0671L192.218 51.9949C191.702 50.2383 191.288 48.8878 190.978 47.9433C190.668 46.9989 190.39 46.2734 190.143 45.7716C189.893 45.2651 189.756 44.9868 189.724 44.932V44.7815C189.46 44.4119 189.332 44.2157 189.332 44.1975C189.332 44.1564 189.387 44.1108 189.496 44.0606C189.606 44.0104 189.688 43.9693 189.742 43.9328L190.007 43.764C190.112 43.7503 190.194 43.7184 190.257 43.6682L190.449 43.764C190.508 44.1199 190.618 44.5534 190.773 45.0644L191.247 46.4559C191.406 46.9031 191.534 47.2818 191.63 47.5829C191.775 48.0209 191.903 48.4406 192.012 48.8376C192.158 49.3668 192.29 49.7729 192.409 50.0467L192.71 50.7812C192.801 51.0002 192.892 51.1736 192.983 51.3105C193.093 51.4884 193.22 51.6344 193.362 51.7531C193.489 51.6801 193.608 51.5751 193.713 51.4428C193.818 51.3105 193.932 51.1097 194.045 50.8497L196.019 46.4514C196.352 45.7077 196.594 45.1556 196.735 44.7952C196.876 44.4347 196.949 44.1883 196.949 44.0697C196.949 44.0332 196.949 44.0104 196.936 44.0013C196.936 43.7047 197.072 43.5587 197.337 43.5587H197.405C197.46 43.5587 197.542 43.5268 197.656 43.4675C197.77 43.4081 197.856 43.3762 197.92 43.3762C198.107 43.3762 198.198 43.4812 198.198 43.6956H198.18Z" fill="#A37AB6"/>
<path d="M202.857 49.2619C202.857 49.2984 202.825 49.3486 202.766 49.4125C202.706 49.4764 202.661 49.5311 202.638 49.5813C202.615 49.6315 202.597 49.7638 202.583 49.9782C202.57 50.1927 202.565 50.512 202.565 50.9318L202.592 51.8489C202.592 51.8991 202.574 51.9401 202.533 51.9766C202.524 52.0268 202.519 52.1089 202.519 52.2276C202.519 52.3964 202.547 52.6063 202.601 52.8663L202.674 53.2268L202.661 53.5598L202.674 53.8518C202.346 54.1803 202.105 54.34 201.95 54.34C201.927 54.34 201.886 54.3218 201.822 54.2944C201.758 54.2625 201.699 54.2488 201.644 54.2488H201.603C201.567 54.121 201.548 54.007 201.548 53.9112C201.548 53.6876 201.599 53.4777 201.703 53.2724C201.754 53.2085 201.79 53.1583 201.817 53.1218C201.84 53.0853 201.854 52.9485 201.854 52.7158C201.854 52.4557 201.826 52.3279 201.772 52.3279C201.763 52.3279 201.735 52.3371 201.685 52.3553C201.64 52.3736 201.585 52.3827 201.535 52.3827H201.48C201.425 52.4192 201.393 52.4648 201.38 52.5241C201.325 52.5241 201.029 52.6199 200.491 52.8298C200.226 52.9211 199.976 52.9667 199.73 52.9667C199.461 52.9667 199.224 52.9302 199.009 52.8618C198.795 52.7933 198.617 52.6884 198.471 52.5469C198.326 52.4101 198.234 52.3051 198.189 52.2367C198.148 52.1683 198.125 52.0223 198.125 51.7941L198.139 51.6253V51.5706C198.139 51.1189 198.49 50.6398 199.196 50.1425C199.903 49.6452 200.559 49.344 201.17 49.2391C201.334 49.2117 201.462 49.1843 201.548 49.1524C201.64 49.125 201.713 49.0748 201.776 49.0064C201.836 48.938 201.868 48.7828 201.868 48.5365C201.868 47.7289 201.444 47.1814 200.591 46.8939C200.564 46.8848 200.527 46.8666 200.477 46.8392C200.427 46.8118 200.386 46.7981 200.35 46.7981C199.912 46.7981 199.543 46.8164 199.251 46.8529C199.087 47.0399 198.909 47.1312 198.708 47.1312C198.558 47.1312 198.485 47.081 198.485 46.9761C198.485 46.9761 198.517 46.8757 198.585 46.6886C198.649 46.5016 198.809 46.4057 199.059 46.4057C199.347 46.2506 199.866 46.1731 200.623 46.1731C201.229 46.1731 201.699 46.4103 202.036 46.8803C202.369 47.3502 202.538 48.0255 202.538 48.8969V48.9927C202.574 49.052 202.638 49.0931 202.729 49.1205C202.82 49.1478 202.866 49.1889 202.866 49.2437V49.2573L202.857 49.2619ZM201.521 51.6755C201.808 51.2922 201.95 50.9455 201.95 50.6444C201.95 50.4573 201.904 50.2565 201.808 50.0375C201.717 49.8185 201.53 49.7136 201.257 49.7136C200.723 49.7136 200.29 49.8459 199.953 50.1151H199.784C199.087 50.4984 198.74 50.909 198.74 51.3379C198.74 51.6436 198.886 51.8945 199.173 52.1044C199.461 52.3143 199.793 52.4146 200.176 52.4146C200.277 52.4146 200.468 52.3736 200.746 52.2869C201.024 52.2002 201.289 52.0405 201.526 51.8033V51.6801L201.521 51.6755Z" fill="#A37AB6"/>
<path d="M208.592 47.6787C208.592 47.7243 208.56 47.8019 208.496 47.9068C208.432 48.0118 208.391 48.1121 208.368 48.208C208.345 48.2992 208.286 48.395 208.19 48.4908H208.022C207.785 48.3494 207.612 48.281 207.498 48.281C207.416 48.281 207.283 48.3266 207.096 48.4224C206.91 48.5182 206.732 48.687 206.559 48.9288C206.385 49.1707 206.276 49.3623 206.226 49.5037C206.203 49.6588 206.13 49.8185 206.007 49.9919V50.2155C205.92 50.439 205.884 50.5987 205.898 50.6991C205.911 50.7995 205.916 50.8816 205.916 50.9318C205.916 50.9911 205.911 51.0367 205.902 51.0732C205.847 51.128 205.82 51.1827 205.82 51.2375C205.82 51.3516 205.843 51.5523 205.893 51.8352C205.943 52.1181 206.021 52.3371 206.125 52.4876V52.5469C206.125 52.7523 206.043 52.8526 205.875 52.8526L205.738 52.9895C205.624 52.9986 205.501 53.0032 205.373 53.0032C205.205 53.0032 205.059 52.9804 204.931 52.9348V52.9074C204.931 52.7842 204.968 52.6063 205.045 52.369C205.123 52.1318 205.155 51.9538 205.155 51.8306L205.196 50.2337C205.196 48.9927 205.127 47.8977 204.99 46.9533C204.977 46.8529 204.972 46.7981 204.972 46.7844C204.972 46.6111 205.054 46.4787 205.218 46.3921C205.382 46.3008 205.528 46.2552 205.651 46.2552C205.761 46.2552 205.861 46.2826 205.957 46.3373C205.966 46.3556 205.984 46.3875 206.007 46.4331C206.03 46.4787 206.043 46.5061 206.043 46.5198V46.6019C206.043 46.6704 206.002 46.8209 205.925 47.0582C205.847 47.2954 205.806 47.592 205.806 47.957L205.82 48.792V48.9152C205.82 48.9836 205.879 49.0292 206.002 49.0566C206.194 48.6368 206.422 48.3038 206.686 48.062C206.951 47.8201 207.279 47.6422 207.666 47.5373C208.054 47.4278 208.3 47.373 208.405 47.373C208.523 47.4551 208.582 47.5281 208.582 47.5966V47.6787H208.592Z" fill="#A37AB6"/>
<path d="M212.279 49.4581C212.63 49.7775 212.808 50.1562 212.808 50.5987C212.808 51.1736 212.63 51.6983 212.275 52.1637C211.919 52.6291 211.463 52.9119 210.898 53.0032C210.775 53.0032 210.602 53.0123 210.383 53.0306C210.214 53.099 210.041 53.131 209.854 53.131C209.608 53.131 209.416 53.0808 209.275 52.9804C209.134 52.88 209.065 52.6838 209.065 52.3873C209.065 52.3006 209.065 52.2367 209.079 52.1911H209.134C209.225 52.1911 209.312 52.2139 209.394 52.2641C209.476 52.3143 209.526 52.3371 209.549 52.3371L209.59 52.3234C209.745 52.4739 210.004 52.5469 210.369 52.5469C210.734 52.5469 211.035 52.4831 211.322 52.3599C211.609 52.2367 211.819 52.0268 211.956 51.7394C212.092 51.4474 212.161 51.1873 212.161 50.9592C212.161 50.6261 212.033 50.3432 211.778 50.1242C211.522 49.9007 210.948 49.6543 210.05 49.3805C209.913 49.3577 209.827 49.3303 209.786 49.2938L209.471 49.0201C209.302 48.8787 209.193 48.7418 209.143 48.6003L209.075 48.3905C209.075 47.6741 209.28 47.1677 209.695 46.8666C210.109 46.5654 210.82 46.4149 211.837 46.4149L212.215 46.4331C212.215 46.4331 212.284 46.424 212.352 46.3966C212.425 46.4696 212.461 46.57 212.461 46.7023C212.461 46.8529 212.439 46.9943 212.389 47.1266C212.338 47.2589 212.288 47.3365 212.234 47.3593C212.193 47.2772 212.147 47.2179 212.092 47.1768H212.079C212.079 47.1768 212.047 47.1859 212.019 47.1996C211.992 47.2133 211.974 47.227 211.96 47.2316C211.746 46.9898 211.481 46.8711 211.167 46.8711C210.556 46.8711 210.155 46.9898 209.959 47.2224C209.763 47.4551 209.667 47.7152 209.667 48.0026C209.667 48.4133 209.995 48.6961 210.652 48.8513C211.13 48.9699 211.522 49.0885 211.828 49.2163C212.133 49.3395 212.284 49.4216 212.284 49.4627L212.279 49.4581Z" fill="#A37AB6"/>
<path d="M214.736 41.4417C214.786 41.4143 214.85 41.3961 214.937 41.3824C215.019 41.3732 215.101 41.3596 215.178 41.3459L215.415 41.2911C215.611 41.2911 215.707 41.4326 215.707 41.72C215.707 41.7702 215.698 41.8888 215.68 42.0713C215.625 42.3177 215.598 42.6188 215.598 42.9747L215.625 43.9876L215.598 45.516C215.598 46.4468 215.625 46.9989 215.684 47.1723C215.739 47.3502 215.839 47.4369 215.971 47.4369C216.022 47.4369 216.145 47.3821 216.341 47.2726C216.537 47.1631 216.696 47.0764 216.824 47.0171C216.947 46.9533 217.088 46.8939 217.243 46.8346C217.398 46.7753 217.544 46.7434 217.685 46.7297L218.064 46.6886C218.187 46.6749 218.292 46.6704 218.378 46.6704H218.492C218.852 46.7525 219.13 46.8985 219.322 47.1129C219.513 47.3274 219.636 47.592 219.696 47.916C219.75 48.2399 219.782 48.7828 219.782 49.5539C219.782 50.1242 219.709 50.7219 219.564 51.3516C219.418 51.9766 219.345 52.3143 219.345 52.3553V52.4238C219.345 52.4831 219.363 52.5652 219.395 52.6656C219.427 52.7659 219.45 52.839 219.454 52.8846C219.331 53.1081 219.176 53.2176 218.994 53.2176H218.871C218.834 53.2176 218.789 53.2222 218.738 53.2359C218.688 53.2496 218.652 53.2541 218.634 53.2541C218.611 53.2541 218.542 53.2222 218.424 53.1538C218.305 53.0899 218.246 53.0169 218.246 52.9485C218.246 52.9256 218.269 52.8663 218.319 52.7659C218.515 52.3781 218.688 51.8443 218.843 51.1645C218.998 50.4847 219.076 49.8414 219.076 49.2345V48.7646C219.076 48.2992 218.957 47.9251 218.716 47.6422C218.474 47.3593 218.164 47.2179 217.777 47.2179C217.59 47.2179 217.321 47.2726 216.97 47.3867C216.619 47.5008 216.427 47.6057 216.404 47.7061C216.336 47.7061 216.259 47.7289 216.172 47.7791C216.085 47.8293 216.026 47.8566 215.999 47.8658C215.967 47.8749 215.949 47.9114 215.935 47.9707C215.921 48.03 215.912 48.0711 215.898 48.0939C215.844 48.0756 215.807 48.0665 215.785 48.0665C215.757 48.0665 215.721 48.0893 215.675 48.135C215.675 48.1851 215.666 48.2445 215.643 48.3083C215.625 48.3722 215.602 48.6733 215.575 49.2072C215.552 49.741 215.538 50.147 215.538 50.4162C215.538 50.6854 215.552 50.9774 215.579 51.274L215.62 51.6116V51.6253C215.62 51.6709 215.639 51.7622 215.68 51.8991C215.721 52.0359 215.739 52.1226 215.739 52.1591C215.739 52.1865 215.73 52.2276 215.707 52.2823C215.684 52.3371 215.675 52.3827 215.675 52.4238V52.4374H215.689C215.762 52.4374 215.798 52.4968 215.798 52.6199C215.798 52.6291 215.78 52.6519 215.744 52.6884C215.639 52.7021 215.538 52.7386 215.447 52.8025C215.351 52.8663 215.297 52.9028 215.279 52.912C215.178 52.8983 215.105 52.8526 215.055 52.7705C214.836 52.7614 214.686 52.7386 214.595 52.6975C214.504 52.6564 214.458 52.5834 214.458 52.4785C214.458 52.4192 214.463 52.3781 214.476 52.3599C214.49 52.3416 214.494 52.3234 214.494 52.3143C214.494 52.3051 214.49 52.2869 214.476 52.2549C214.463 52.223 214.458 52.1911 214.458 52.1591C214.458 52.1454 214.476 52.1044 214.513 52.0359C214.763 51.5569 214.887 50.9911 214.887 50.3387L214.845 49.0018C214.845 48.792 214.845 48.6414 214.859 48.5456C214.681 48.4726 214.595 48.3494 214.595 48.1715C214.595 47.9707 214.7 47.738 214.914 47.4734C214.923 46.9898 214.928 46.3008 214.928 45.4157C214.928 43.1526 214.809 42.0211 214.567 42.0303C214.54 41.9618 214.526 41.8934 214.526 41.8249C214.526 41.5694 214.595 41.4462 214.736 41.4462V41.4417Z" fill="#A37AB6"/>
<path d="M226 49.2619C226 49.2984 225.968 49.3486 225.909 49.4125C225.85 49.4764 225.804 49.5311 225.781 49.5813C225.759 49.6315 225.74 49.7638 225.727 49.9782C225.713 50.1927 225.709 50.512 225.709 50.9318L225.736 51.8489C225.736 51.8991 225.718 51.9401 225.677 51.9766C225.667 52.0268 225.663 52.1089 225.663 52.2276C225.663 52.3964 225.69 52.6063 225.745 52.8663L225.818 53.2268L225.804 53.5598L225.818 53.8518C225.49 54.1803 225.248 54.34 225.093 54.34C225.07 54.34 225.029 54.3218 224.965 54.2944C224.902 54.2625 224.842 54.2488 224.788 54.2488H224.747C224.71 54.121 224.692 54.007 224.692 53.9112C224.692 53.6876 224.742 53.4777 224.847 53.2724C224.897 53.2085 224.934 53.1583 224.961 53.1218C224.984 53.0853 224.997 52.9485 224.997 52.7158C224.997 52.4557 224.97 52.3279 224.915 52.3279C224.906 52.3279 224.879 52.3371 224.829 52.3553C224.783 52.3736 224.728 52.3827 224.678 52.3827H224.624C224.569 52.4192 224.537 52.4648 224.523 52.5241C224.469 52.5241 224.172 52.6199 223.634 52.8298C223.37 52.9211 223.119 52.9667 222.873 52.9667C222.604 52.9667 222.367 52.9302 222.153 52.8618C221.939 52.7933 221.761 52.6884 221.615 52.5469C221.469 52.4101 221.378 52.3051 221.332 52.2367C221.291 52.1683 221.269 52.0223 221.269 51.7941L221.282 51.6253V51.5706C221.282 51.1189 221.633 50.6398 222.34 50.1425C223.046 49.6452 223.703 49.344 224.314 49.2391C224.478 49.2117 224.605 49.1843 224.692 49.1524C224.783 49.125 224.856 49.0748 224.92 49.0064C224.979 48.938 225.011 48.7828 225.011 48.5365C225.011 47.7289 224.587 47.1814 223.735 46.8939C223.707 46.8848 223.671 46.8666 223.621 46.8392C223.571 46.8118 223.53 46.7981 223.493 46.7981C223.055 46.7981 222.686 46.8164 222.394 46.8529C222.23 47.0399 222.053 47.1312 221.852 47.1312C221.702 47.1312 221.629 47.081 221.629 46.9761C221.629 46.9761 221.661 46.8757 221.729 46.6886C221.793 46.5016 221.952 46.4057 222.203 46.4057C222.49 46.2506 223.01 46.1731 223.767 46.1731C224.373 46.1731 224.842 46.4103 225.18 46.8803C225.513 47.3502 225.681 48.0255 225.681 48.8969V48.9927C225.718 49.052 225.781 49.0931 225.873 49.1205C225.964 49.1478 226.009 49.1889 226.009 49.2437V49.2573L226 49.2619ZM224.66 51.6755C224.947 51.2922 225.089 50.9455 225.089 50.6444C225.089 50.4573 225.043 50.2565 224.947 50.0375C224.856 49.8185 224.669 49.7136 224.396 49.7136C223.862 49.7136 223.429 49.8459 223.092 50.1151H222.923C222.226 50.4984 221.879 50.909 221.879 51.3379C221.879 51.6436 222.025 51.8945 222.312 52.1044C222.6 52.3143 222.932 52.4146 223.315 52.4146C223.416 52.4146 223.607 52.3736 223.885 52.2869C224.163 52.2002 224.428 52.0405 224.665 51.8033V51.6801L224.66 51.6755Z" fill="#A37AB6"/>
</g>
<defs>
<clipPath id="clip0_53_1261">
<rect width="226" height="57" fill="white"/>
</clipPath>
</defs>
</svg>
